# xmcd
#
# Track frame offsets:
#	150
#	15415
#	30545
#	41385
#	53292
#	65322
#	76247
#	92247
#	104542
#	116267
#	132465
#	146025
#	155105
#	169672
#	180177
#	192362
#
# Disc length: 2760 seconds
#
# Revision: 4
# Processed by: cddbd v1.5.2PL0 Copyright (c) Steve Scherf et al.
# Submitted via: audiograbber 1.83.01
#
DISCID=c50ac610
DTITLE=Various Artist - All Time Greatest Country songs - CD 2
DYEAR=2000
DGENRE=Country
TTITLE0=Billy Ray Cyrus - Achy breaky heart (1992)
TTITLE1=Mark Knopfler and Chet Atkins - The next time I'm in (1990)
TTITLE2=Henning Stærk - Lonely weekends (1991)
TTITLE3=Dolly Parton - Jolene (1995)
TTITLE4=Tammy Wynette - Stand by your man (1968)
TTITLE5=Roger Miller - King of the road (1991)
TTITLE6=Charlie Daniels Band - The devil went down to Georgia (1979)
TTITLE7=Johnny Cash and June Carter - Jackson (1973)
TTITLE8=Charlie Rich - The most beautiful girl (1972)
TTITLE9=Søs Fenger - Even cowgirls get the blues (1989)
TTITLE10=W. Jennings, W. Nelson, J. Cash, K. Kristofferson - Hihgwayman (1985)
TTITLE11=Calamity Jane - Walking after midnight (1982)
TTITLE12=Peter Viskinde - Turn to you
TTITLE13=Ricky Van Sheldon - From a Jack to a king (1996)
TTITLE14=Tanya Tucker - You are so beautiful (1977)
TTITLE15=Eric Weisberg and Steve Mandell - Duelling banjos (1972)
EXTD=
EXTT0=
EXTT1=
EXTT2=
EXTT3=
EXTT4=
EXTT5=
EXTT6=
EXTT7=
EXTT8=
EXTT9=
EXTT10=
EXTT11=
EXTT12=
EXTT13=
EXTT14=
EXTT15=
PLAYORDER=
